<svg width="32" height="32" viewBox="0 0 32 32" fill="none" xmlns="http://www.w3.org/2000/svg">
<path d="M9.33268 2.66669C5.33268 2.66669 2.66602 6.66669 2.66602 10.6667C2.66602 13.48 3.99935 17.3334 5.33268 18.6667C6.66602 20 7.99935 29.3334 10.666 29.3334C16.7193 29.3334 13.3327 20 15.9993 20C18.666 20 15.2793 29.3334 21.3327 29.3334C23.9993 29.3334 25.3327 20 26.666 18.6667C27.9993 17.3334 29.3327 13.48 29.3327 10.6667C29.3327 6.66669 26.666 2.66669 22.666 2.66669C18.666 2.66669 18.666 4.00002 15.9993 4.00002C13.3327 4.00002 13.3327 2.66669 9.33268 2.66669Z" fill="#7546B8"/>
</svg>
