<svg width="32" height="32" viewBox="0 0 32 32" fill="none" xmlns="http://www.w3.org/2000/svg">
<g clip-path="url(#clip0_240_432)">
<rect width="32" height="32" rx="16" fill="#7546B8"/>
<path d="M5.82146 20.8V12.7333L4 13.8333V12.28L5.82146 11.2H7.25308V20.8H5.82146Z" fill="white"/>
<path d="M12.6755 21C12.1781 21 11.7143 20.9 11.2842 20.7C10.8585 20.4956 10.4933 20.2156 10.1886 19.86C9.88389 19.5 9.66657 19.0867 9.53663 18.62L10.8876 18.26C10.9638 18.5444 11.0937 18.7911 11.2774 19C11.4656 19.2089 11.6852 19.3711 11.9361 19.4867C12.187 19.5978 12.4469 19.6533 12.7158 19.6533C13.0698 19.6533 13.3901 19.5689 13.6769 19.4C13.9682 19.2311 14.1967 19.0044 14.3625 18.72C14.5328 18.4356 14.6179 18.1222 14.6179 17.78C14.6179 17.4289 14.5305 17.1111 14.3558 16.8267C14.1855 16.5422 13.9547 16.3178 13.6635 16.1533C13.3767 15.9844 13.0608 15.9 12.7158 15.9C12.3215 15.9 11.9876 15.9778 11.7143 16.1333C11.441 16.2889 11.2281 16.4689 11.0758 16.6733L9.85253 16.2467L10.1483 11.2H15.3707V12.5133H10.8674L11.4387 11.9867L11.2035 15.7667L10.9279 15.4133C11.1833 15.16 11.488 14.9667 11.842 14.8333C12.196 14.7 12.5477 14.6333 12.8973 14.6333C13.4977 14.6333 14.0331 14.7711 14.5036 15.0467C14.9786 15.3222 15.3527 15.6978 15.6261 16.1733C15.8994 16.6444 16.0361 17.18 16.0361 17.78C16.0361 18.3756 15.8815 18.9178 15.5723 19.4067C15.2631 19.8911 14.8531 20.2778 14.3423 20.5667C13.8315 20.8556 13.2759 21 12.6755 21Z" fill="white"/>
<path d="M18.8524 20.8L17.9114 19.8667L26.6558 11.2L27.5967 12.14L18.8524 20.8ZM25.5804 21C25.1367 21 24.7312 20.8933 24.3638 20.68C24.0009 20.4622 23.7096 20.1733 23.49 19.8133C23.2705 19.4489 23.1607 19.0444 23.1607 18.6C23.1607 18.1644 23.2727 17.7644 23.4968 17.4C23.7208 17.0356 24.0165 16.7444 24.384 16.5267C24.7514 16.3089 25.1502 16.2 25.5804 16.2C26.024 16.2 26.4295 16.3089 26.7969 16.5267C27.1643 16.74 27.4556 17.0289 27.6707 17.3933C27.8902 17.7533 28 18.1556 28 18.6C28 19.0444 27.8902 19.4489 27.6707 19.8133C27.4556 20.1733 27.1643 20.4622 26.7969 20.68C26.4295 20.8933 26.024 21 25.5804 21ZM25.5804 19.7933C25.7999 19.7933 25.9993 19.74 26.1785 19.6333C26.3623 19.5222 26.5079 19.3756 26.6154 19.1933C26.7274 19.0111 26.7835 18.8133 26.7835 18.6C26.7835 18.3867 26.7274 18.1889 26.6154 18.0067C26.5079 17.8244 26.3623 17.68 26.1785 17.5733C25.9993 17.4622 25.7999 17.4067 25.5804 17.4067C25.3653 17.4067 25.1659 17.4622 24.9822 17.5733C24.8029 17.68 24.6573 17.8244 24.5453 18.0067C24.4377 18.1889 24.384 18.3867 24.384 18.6C24.384 18.8133 24.4377 19.0111 24.5453 19.1933C24.6573 19.3756 24.8029 19.5222 24.9822 19.6333C25.1659 19.74 25.3653 19.7933 25.5804 19.7933ZM19.9278 15.8C19.4842 15.8 19.0787 15.6933 18.7112 15.48C18.3438 15.2622 18.0503 14.9733 17.8308 14.6133C17.6157 14.2489 17.5081 13.8444 17.5081 13.4C17.5081 12.9644 17.6202 12.5644 17.8442 12.2C18.0682 11.8356 18.364 11.5444 18.7314 11.3267C19.0988 11.1089 19.4976 11 19.9278 11C20.3714 11 20.7747 11.1089 21.1376 11.3267C21.505 11.54 21.7985 11.8289 22.0181 12.1933C22.2377 12.5533 22.3474 12.9556 22.3474 13.4C22.3474 13.8444 22.2377 14.2489 22.0181 14.6133C21.7985 14.9733 21.505 15.2622 21.1376 15.48C20.7747 15.6933 20.3714 15.8 19.9278 15.8ZM19.9278 14.5933C20.1429 14.5933 20.3423 14.54 20.526 14.4333C20.7097 14.3222 20.8553 14.1756 20.9629 13.9933C21.0749 13.8111 21.1309 13.6133 21.1309 13.4C21.1309 13.1867 21.0749 12.9889 20.9629 12.8067C20.8553 12.6244 20.7097 12.48 20.526 12.3733C20.3423 12.2622 20.1429 12.2067 19.9278 12.2067C19.7127 12.2067 19.5133 12.2622 19.3296 12.3733C19.1504 12.48 19.0047 12.6244 18.8927 12.8067C18.7807 12.9889 18.7247 13.1867 18.7247 13.4C18.7247 13.6133 18.7807 13.8111 18.8927 13.9933C19.0047 14.1756 19.1504 14.3222 19.3296 14.4333C19.5088 14.54 19.7082 14.5933 19.9278 14.5933Z" fill="white"/>
</g>
<defs>
<clipPath id="clip0_240_432">
<rect width="32" height="32" fill="white"/>
</clipPath>
</defs>
</svg>
