<svg width="32" height="32" viewBox="0 0 32 32" fill="none" xmlns="http://www.w3.org/2000/svg">
<g clip-path="url(#clip0_240_418)">
<path fill-rule="evenodd" clip-rule="evenodd" d="M16 32C24.8366 32 32 24.8366 32 16C32 7.16344 24.8366 0 16 0C7.16344 0 0 7.16344 0 16C0 24.8366 7.16344 32 16 32ZM10.5486 7.89795L11.0379 7.80431C14.3191 7.17634 17.6808 7.17634 20.9621 7.80431L21.4514 7.89795C22.6335 8.12417 23.6248 8.9078 24.1819 9.97853C24.1418 9.97602 24.1014 9.97474 24.0606 9.97474C23.2401 9.97474 22.567 10.49 22.2762 11.1966C21.9308 10.9883 21.5274 10.8678 21.0909 10.8678C20.1704 10.8678 19.3972 11.4037 19.0046 12.1689C18.6337 11.9123 18.1861 11.7609 17.697 11.7609C17.0211 11.7609 16.4247 12.0498 16 12.5062C15.5753 12.0498 14.9789 11.7609 14.303 11.7609C13.8139 11.7609 13.3663 11.9123 12.9954 12.1689C12.6028 11.4037 11.8296 10.8678 10.9091 10.8678C10.4726 10.8678 10.0692 10.9883 9.72385 11.1966C9.43297 10.49 8.7599 9.97474 7.93939 9.97474C7.89859 9.97474 7.85816 9.97602 7.81811 9.97853C8.37523 8.9078 9.36652 8.12417 10.5486 7.89795ZM21.7021 6.58838C24.2145 7.06921 26 9.35778 26 11.9811V14.196C26 14.5434 25.7239 14.8804 25.3164 14.8804H23.4545V15.0891C23.4545 15.4345 23.1803 15.7735 22.771 15.7735H20.0606V15.9822C20.0606 16.3276 19.7864 16.6666 19.3771 16.6666H16.0169L16 16.6664L15.9831 16.6666H12.6229C12.2139 16.6666 11.9394 16.3278 11.9394 15.9822V15.7735H9.22901C8.8199 15.7735 8.54545 15.4347 8.54545 15.0891V14.8804H6.68355C6.27639 14.8804 6 14.5437 6 14.196V11.9811C6 9.35778 7.78552 7.06921 10.298 6.58838L10.7872 6.49474C14.2341 5.83509 17.7659 5.83509 21.2127 6.49474L21.7021 6.58838ZM22.1212 13.3207V14.4402H20.0606V13.3207C20.0606 12.6698 20.5536 12.2012 21.0909 12.2012C21.6282 12.2012 22.1212 12.6698 22.1212 13.3207ZM18.7273 14.2138V15.3333H16.6667V14.2138C16.6667 13.5629 17.1597 13.0943 17.697 13.0943C18.2342 13.0943 18.7273 13.5629 18.7273 14.2138ZM14.303 13.0943C14.8403 13.0943 15.3333 13.5629 15.3333 14.2138V15.3333H13.2727V14.2138C13.2727 13.5629 13.7658 13.0943 14.303 13.0943ZM11.9394 14.4402H9.87879V13.3207C9.87879 12.6698 10.3719 12.2012 10.9091 12.2012C11.4463 12.2012 11.9394 12.6698 11.9394 13.3207V14.4402ZM24.0606 11.3081C24.3635 11.3081 24.6667 11.5768 24.6667 11.9811V13.5471H23.4545V11.9811C23.4545 11.5768 23.7577 11.3081 24.0606 11.3081ZM8.54545 11.9811V13.5471H7.33333V11.9811C7.33333 11.5768 7.63646 11.3081 7.93939 11.3081C8.24233 11.3081 8.54545 11.5768 8.54545 11.9811ZM7.33333 20.0189V18.4528H8.54545V20.0189C8.54545 20.4233 8.24235 20.6919 7.93939 20.6919C7.63644 20.6919 7.33333 20.4233 7.33333 20.0189ZM9.87879 17.804V18.0126H12.5892C13.0004 18.0126 13.2727 18.3538 13.2727 18.6971V18.9057H15.9831L16 18.9059L16.0169 18.9057H18.7273V18.6971C18.7273 18.354 18.9994 18.0126 19.4108 18.0126H22.1212V17.804C22.1212 17.4609 22.3933 17.1195 22.8048 17.1195H25.3164C25.7279 17.1195 26 17.4609 26 17.804V20.0189C26 22.6422 24.2145 24.9308 21.7021 25.4116L21.2128 25.5053C17.7659 26.1649 14.2341 26.1649 10.7873 25.5053L10.298 25.4116C7.78551 24.9308 6 22.6422 6 20.0189V17.804C6 17.4607 6.27234 17.1195 6.68355 17.1195H9.19524C9.60645 17.1195 9.87879 17.4607 9.87879 17.804ZM9.87879 19.3459H11.9394V20.4655C11.9394 21.1164 11.4463 21.585 10.9091 21.585C10.3718 21.585 9.87879 21.1164 9.87879 20.4655V19.3459ZM10.9091 22.9184C11.3982 22.9184 11.8458 22.767 12.2168 22.5104C12.6093 23.2756 13.3825 23.8115 14.303 23.8115C14.9789 23.8115 15.5753 23.5226 16 23.0662C16.4247 23.5226 17.0211 23.8115 17.697 23.8115C18.6175 23.8115 19.3907 23.2756 19.7832 22.5104C20.1542 22.767 20.6018 22.9184 21.0909 22.9184C21.9523 22.9184 22.6847 22.4491 23.0969 21.7618C23.3778 21.9287 23.7054 22.0253 24.0606 22.0253C24.1014 22.0253 24.1419 22.024 24.1819 22.0215C23.6248 23.0922 22.6335 23.8759 21.4515 24.1021L20.9621 24.1957C17.6809 24.8236 14.3192 24.8236 11.0379 24.1958L10.5486 24.1021C9.36659 23.8759 8.37521 23.0922 7.8181 22.0215C7.85815 22.024 7.89859 22.0253 7.93939 22.0253C8.29461 22.0253 8.62221 21.9287 8.90311 21.7618C9.3153 22.4491 10.0477 22.9184 10.9091 22.9184ZM17.697 22.4781C17.1597 22.4781 16.6667 22.0095 16.6667 21.3586V20.239H18.7273V21.3586C18.7273 22.0095 18.2342 22.4781 17.697 22.4781ZM14.303 22.4781C14.8403 22.4781 15.3333 22.0095 15.3333 21.3586V20.239H13.2727V21.3586C13.2727 22.0095 13.7658 22.4781 14.303 22.4781ZM22.1212 19.3459V20.4655C22.1212 21.1164 21.6282 21.585 21.0909 21.585C20.5536 21.585 20.0606 21.1164 20.0606 20.4655V19.3459H22.1212ZM24.6667 18.4528V20.0189C24.6667 20.4233 24.3635 20.6919 24.0606 20.6919C23.7577 20.6919 23.4545 20.4233 23.4545 20.0189V18.4528H24.6667Z" fill="#7546B8"/>
</g>
<defs>
<clipPath id="clip0_240_418">
<rect width="32" height="32" fill="white"/>
</clipPath>
</defs>
</svg>
