<svg width="32" height="32" viewBox="0 0 32 32" fill="none" xmlns="http://www.w3.org/2000/svg">
<g clip-path="url(#clip0_240_421)">
<rect width="32" height="32" rx="16" fill="#7546B8"/>
<path d="M13.7333 8C14.3073 8.11644 15.6849 8.82374 16.0207 10.7101M18.383 8C18.2046 8.03619 17.9486 8.12944 17.6704 8.29742M8.97896 11.7784C7.56141 14.8551 7.13664 20.8968 11.542 23.6524C12.3851 24.1797 13.4472 24.0726 14.3005 23.5626L14.3398 23.5392C15.3071 22.9611 16.5075 22.9611 17.4749 23.5392C18.3478 24.061 19.4394 24.1432 20.2852 23.5772C24.6841 20.6338 24.486 14.7911 23.1884 11.7926C22.4963 10.1935 20.6534 9.87385 18.9978 10.3536C17.1009 10.9033 15.0902 10.9033 13.1933 10.3536C11.5377 9.87385 9.7079 10.1963 8.97896 11.7784Z" stroke="white" stroke-width="1.5" stroke-linecap="round" stroke-linejoin="round"/>
</g>
<defs>
<clipPath id="clip0_240_421">
<rect width="32" height="32" fill="white"/>
</clipPath>
</defs>
</svg>
