<svg width="25" height="25" viewBox="0 0 25 25" fill="none" xmlns="http://www.w3.org/2000/svg">
<path d="M9.89451 15.1042L4.16534 20.8334" stroke="#B41A24" stroke-width="1.58333" stroke-linecap="round" stroke-linejoin="round"/>
<path d="M5.91387 9.17339C5.52334 9.56391 5.52334 10.1971 5.91387 10.5876L14.0751 18.7488C14.4656 19.1393 15.0988 19.1393 15.4893 18.7488L16.2133 18.0247C16.4263 17.8118 16.5319 17.5142 16.5009 17.2146L16.1958 14.2687C16.1618 13.9404 16.2919 13.6165 16.5436 13.4031L21.0524 9.57831C21.4981 9.20017 21.5259 8.52195 21.1126 8.10862L16.5542 3.55022C16.1409 3.13689 15.4627 3.16467 15.0845 3.61042L11.2597 8.1191C11.0462 8.37074 10.7223 8.50086 10.3941 8.46687L7.44803 8.16177C7.14847 8.13075 6.85087 8.23639 6.63792 8.44935L5.91387 9.17339Z" fill="#B41A24" stroke="#B41A24" stroke-width="1.58333" stroke-linecap="round" stroke-linejoin="round"/>
</svg>
