<svg width="20" height="20" viewBox="0 0 20 20" fill="none" xmlns="http://www.w3.org/2000/svg">
<g clip-path="url(#clip0_199_62)">
<path d="M9.99744 6.93204C8.30814 6.93204 6.92962 8.31074 6.92962 10C6.92962 11.6894 8.30814 13.0681 9.99744 13.0681C11.6867 13.0681 13.0654 11.6894 13.0654 10C13.0654 8.31074 11.6867 6.93204 9.99744 6.93204ZM19.199 10C19.199 8.72966 19.2103 7.47062 19.1391 6.20251C19.0678 4.72947 18.7317 3.42222 17.6547 2.34505C16.5752 1.26564 15.2703 0.931914 13.7972 0.860568C12.5268 0.789222 11.268 0.800734 9.99971 0.800734C8.72933 0.800734 7.47047 0.789222 6.20236 0.860568C4.72933 0.931914 3.42209 1.26794 2.34492 2.34505C1.2656 3.42449 0.931881 4.72947 0.860536 6.20251C0.789191 7.4729 0.800686 8.73193 0.800686 10C0.800686 11.2682 0.789191 12.5295 0.860536 13.7976C0.931881 15.2706 1.26789 16.5779 2.34492 17.655C3.42436 18.7345 4.72933 19.0682 6.20236 19.1396C7.47275 19.2109 8.7316 19.1994 9.99971 19.1994C11.2703 19.1994 12.5291 19.2109 13.7972 19.1396C15.2703 19.0682 16.5775 18.7322 17.6547 17.655C18.7339 16.5756 19.0678 15.2706 19.1391 13.7976C19.2128 12.5295 19.199 11.2704 19.199 10ZM9.99744 14.7205C7.38522 14.7205 5.27718 12.6123 5.27718 10C5.27718 7.38782 7.38522 5.27959 9.99744 5.27959C12.6097 5.27959 14.7179 7.38782 14.7179 10C14.7179 12.6123 12.6097 14.7205 9.99744 14.7205ZM14.9113 6.18871C14.3012 6.18871 13.8088 5.69606 13.8088 5.0862C13.8088 4.47634 14.3012 3.98369 14.9113 3.98369C15.5211 3.98369 16.0136 4.47634 16.0136 5.0862C16.0138 5.23102 15.9855 5.37445 15.9301 5.50827C15.8747 5.64208 15.7935 5.76384 15.6911 5.86622C15.5887 5.96859 15.4671 6.04982 15.3333 6.1052C15.1995 6.16041 15.0561 6.18888 14.9113 6.18871Z" fill="#98161F"/>
</g>
<defs>
<clipPath id="clip0_199_62">
<rect width="20" height="20" fill="white"/>
</clipPath>
</defs>
</svg>
