<svg width="30" height="30" viewBox="0 0 30 30" fill="none" xmlns="http://www.w3.org/2000/svg">
<g clip-path="url(#clip0_123_335)">
<path d="M18.8726 16.1876C18.6682 16.0853 17.664 15.5912 17.4765 15.5231C17.2894 15.4548 17.153 15.4207 17.0168 15.6253C16.8807 15.83 16.4892 16.2899 16.37 16.4264C16.2508 16.5628 16.1315 16.5797 15.9275 16.4774C15.8945 16.4608 15.8496 16.4414 15.7943 16.4174L15.7923 16.4165C15.5046 16.2917 14.9372 16.0457 14.2845 15.4633C13.6772 14.9215 13.2672 14.2525 13.148 14.0482C13.0287 13.8436 13.1351 13.7331 13.2374 13.6313C13.2987 13.5702 13.3693 13.4842 13.4396 13.3986C13.4747 13.3558 13.5098 13.313 13.5438 13.2733C13.6304 13.1722 13.668 13.0955 13.7191 12.9915L13.7197 12.9902C13.7287 12.9719 13.738 12.9528 13.7482 12.9326C13.8164 12.7962 13.7823 12.677 13.7312 12.5747C13.6974 12.5068 13.5061 12.0412 13.3314 11.6162L13.3279 11.6077L13.3245 11.5993C13.2385 11.3899 13.1571 11.1918 13.1013 11.0578C12.9548 10.7061 12.8065 10.707 12.6874 10.7077C12.6716 10.7078 12.6563 10.7079 12.6416 10.7072C12.5226 10.7012 12.3862 10.7001 12.2501 10.7001C12.1139 10.7001 11.8927 10.7511 11.7053 10.9557C11.6936 10.9685 11.6807 10.9823 11.6666 10.9973L11.665 10.999C11.4521 11.2263 10.9902 11.7194 10.9902 12.6601C10.9902 13.6632 11.7186 14.6324 11.8237 14.7723L11.8245 14.7733C11.8309 14.7818 11.8421 14.7979 11.858 14.8207L11.86 14.8236C12.1039 15.1735 13.3984 17.0307 15.3144 17.8581C15.802 18.0687 16.1823 18.1943 16.4791 18.2884C16.9685 18.4439 17.4138 18.422 17.766 18.3694C18.1586 18.3107 18.9746 17.8753 19.1448 17.3981C19.3151 16.921 19.3151 16.5118 19.2641 16.4266C19.2229 16.3577 19.1264 16.311 18.9833 16.2418C18.949 16.2253 18.912 16.2074 18.8726 16.1876Z" fill="white"/>
<path fill-rule="evenodd" clip-rule="evenodd" d="M15 30C23.2843 30 30 23.2843 30 15C30 6.71574 23.2843 0 15 0C6.71574 0 0 6.71574 0 15C0 23.2843 6.71574 30 15 30ZM15.145 6.3C17.3322 6.30081 19.3852 7.1523 20.9288 8.69784C22.4727 10.2434 23.3222 12.2975 23.3209 14.4825C23.319 18.9903 19.6509 22.6584 15.1447 22.6584H15.1414C13.7732 22.6579 12.4285 22.3147 11.2343 21.6631L6.9 22.8L8.06004 18.5631C7.34469 17.3234 6.96822 15.9167 6.96876 14.4757C6.97038 9.96756 10.6385 6.3 15.145 6.3Z" fill="white"/>
<path fill-rule="evenodd" clip-rule="evenodd" d="M20.9288 8.69784C19.3852 7.1523 17.3322 6.30081 15.145 6.3C10.6385 6.3 6.97038 9.96756 6.96876 14.4757C6.96822 15.9167 7.34469 17.3234 8.06004 18.5631L6.9 22.8L11.2343 21.6631C12.4285 22.3147 13.7732 22.6579 15.1414 22.6584H15.1447C19.6509 22.6584 23.319 18.9903 23.3209 14.4825C23.3222 12.2975 22.4727 10.2434 20.9288 8.69784ZM17.4765 15.5231C17.664 15.5912 18.6682 16.0853 18.8726 16.1876C18.912 16.2074 18.949 16.2253 18.9833 16.2418C19.1264 16.311 19.2229 16.3577 19.2641 16.4266C19.3151 16.5118 19.3151 16.921 19.1448 17.3981C18.9746 17.8753 18.1586 18.3107 17.766 18.3694C17.4138 18.422 16.9685 18.4439 16.4791 18.2884C16.1823 18.1943 15.802 18.0687 15.3144 17.8581C13.3984 17.0307 12.1039 15.1735 11.86 14.8236L11.858 14.8207C11.8421 14.7979 11.8309 14.7818 11.8245 14.7733L11.8237 14.7723C11.7186 14.6324 10.9902 13.6632 10.9902 12.6601C10.9902 11.7194 11.4521 11.2263 11.665 10.999L11.6666 10.9973C11.6807 10.9823 11.6936 10.9685 11.7053 10.9557C11.8927 10.7511 12.1139 10.7001 12.2501 10.7001C12.3862 10.7001 12.5226 10.7012 12.6416 10.7072C12.6563 10.7079 12.6716 10.7078 12.6874 10.7077C12.8065 10.707 12.9548 10.7061 13.1013 11.0578C13.1571 11.1918 13.2385 11.3899 13.3245 11.5993L13.3279 11.6077L13.3314 11.6162C13.5061 12.0412 13.6974 12.5068 13.7312 12.5747C13.7823 12.677 13.8164 12.7962 13.7482 12.9326C13.738 12.9528 13.7287 12.9719 13.7197 12.9902L13.7191 12.9915C13.668 13.0955 13.6304 13.1722 13.5438 13.2733C13.5098 13.313 13.4747 13.3558 13.4396 13.3986C13.3693 13.4842 13.2987 13.5702 13.2374 13.6313C13.1351 13.7331 13.0287 13.8436 13.148 14.0482C13.2672 14.2525 13.6772 14.9215 14.2845 15.4633C14.9372 16.0457 15.5046 16.2917 15.7923 16.4165L15.7943 16.4174C15.8496 16.4414 15.8945 16.4608 15.9275 16.4774C16.1315 16.5797 16.2508 16.5628 16.37 16.4264C16.4892 16.2899 16.8807 15.83 17.0168 15.6253C17.153 15.4207 17.2894 15.4548 17.4765 15.5231Z" fill="#B41A24"/>
</g>
<defs>
<clipPath id="clip0_123_335">
<rect width="30" height="30" fill="white"/>
</clipPath>
</defs>
</svg>
