<?xml version="1.0" standalone="no"?>
<!DOCTYPE svg PUBLIC "-//W3C//DTD SVG 20010904//EN"
 "http://www.w3.org/TR/2001/REC-SVG-20010904/DTD/svg10.dtd">
<svg version="1.0" xmlns="http://www.w3.org/2000/svg"
 width="164.000000pt" height="164.000000pt" viewBox="0 0 164.000000 164.000000"
 preserveAspectRatio="xMidYMid meet">
<metadata>
Created by potrace 1.14, written by Peter Selinger 2001-2017
</metadata>
<g transform="translate(0.000000,164.000000) scale(0.100000,-0.100000)"
fill="#000000" stroke="none">
<path d="M262 1404 c-108 -29 -193 -104 -227 -201 -19 -54 -12 -159 14 -210
45 -88 114 -136 353 -244 194 -87 245 -126 278 -207 15 -39 8 -138 -14 -180
-31 -61 -118 -121 -173 -122 -13 0 -23 -4 -23 -10 0 -5 6 -7 13 -5 6 2 26 6
42 9 113 17 208 85 257 184 33 68 33 207 -1 272 -45 88 -131 147 -357 245
-168 74 -242 125 -273 188 -75 154 51 299 248 285 134 -10 228 -92 277 -241
11 -31 21 -57 24 -57 3 0 5 63 5 140 0 77 -1 140 -3 140 -1 0 -16 -10 -32 -22
-33 -24 -26 -25 -165 26 -80 29 -160 33 -243 10z"/>
<path d="M886 1402 c-3 -5 1 -9 9 -9 8 0 12 4 9 9 -3 4 -7 8 -9 8 -2 0 -6 -4
-9 -8z"/>
<path d="M961 1393 c6 -7 10 -234 10 -585 l0 -573 85 0 c46 0 84 3 84 8 0 4
-3 7 -8 7 -5 0 -9 1111 -3 1141 0 4 14 5 30 4 16 -1 34 0 39 4 6 4 -47 6 -118
6 -96 0 -126 -3 -119 -12z"/>
<path d="M1256 1402 c-3 -5 1 -9 9 -9 8 0 12 4 9 9 -3 4 -7 8 -9 8 -2 0 -6 -4
-9 -8z"/>
<path d="M1390 1398 c0 -5 10 -8 23 -8 41 0 127 -51 157 -92 26 -36 51 -102
63 -168 3 -14 4 42 3 125 l-1 149 -123 1 c-67 0 -122 -3 -122 -7z"/>
<path d="M1442 1005 c-2 -33 -28 -94 -50 -119 -24 -27 -91 -56 -130 -56 -20 0
-31 -4 -27 -10 4 -6 10 -8 14 -6 14 9 86 -16 120 -41 34 -26 67 -86 73 -135 9
-69 13 -20 13 178 0 118 -2 214 -5 214 -3 0 -7 -11 -8 -25z"/>
<path d="M1150 821 c0 -9 38 -12 44 -3 2 4 -7 8 -20 8 -13 1 -24 -1 -24 -5z"/>
<path d="M1 418 l-1 -186 29 29 c17 16 40 29 54 29 19 0 172 -42 235 -65 6 -2
12 0 12 5 0 6 -8 10 -17 10 -36 0 -121 49 -167 96 -53 53 -78 96 -118 199
l-27 70 0 -187z"/>
<path d="M1156 238 c2 -4 14 -5 26 -3 32 7 32 13 -1 11 -16 0 -27 -4 -25 -8z"/>
<path d="M368 223 c17 -2 47 -2 65 0 17 2 3 4 -33 4 -36 0 -50 -2 -32 -4z"/>
</g>
</svg>
