<svg width="130" height="130" viewBox="0 0 130 130" fill="none" xmlns="http://www.w3.org/2000/svg">
<path d="M59.1066 5.4165C54.7673 5.4165 51.2494 8.93425 51.2494 13.2737C51.2494 17.613 54.7673 21.1308 59.1066 21.1308H61.7255C64.1674 21.1308 66.2192 19.4598 66.7993 17.1988C66.854 17.2011 66.9087 17.2022 66.9634 17.2022H73.5111V44.7023C73.5111 61.3322 60.0333 74.8143 43.4049 74.8213H43.3922H43.3734C26.7477 74.811 13.2732 61.33 13.2732 44.7022V17.2022H19.8208C19.8758 17.2022 19.9305 17.2011 19.985 17.1988C20.5652 19.4598 22.6169 21.1308 25.0589 21.1308H27.6779C32.0173 21.1308 35.5351 17.613 35.5351 13.2737C35.5351 8.93425 32.0173 5.4165 27.6779 5.4165H25.0589C22.6169 5.4165 20.5652 7.08749 19.985 9.34846C19.9305 9.34619 19.8758 9.34505 19.8208 9.34505H9.34456C7.17492 9.34505 5.41602 11.104 5.41602 13.2737V44.7022C5.41602 64.3493 20.3358 80.5121 39.4637 82.4778V86.6075C39.4637 107.581 56.4665 124.583 77.4398 124.583H80.0588C99.5858 124.583 115.416 108.754 115.416 89.2259C115.416 89.0271 115.401 88.831 115.373 88.6403C120.708 86.985 124.583 82.0103 124.583 76.1305C124.583 68.8988 118.72 63.0358 111.487 63.0358C104.255 63.0358 98.392 68.8988 98.392 76.1305C98.392 82.0103 102.267 86.985 107.603 88.6403C107.574 88.831 107.559 89.0271 107.559 89.2259C107.559 104.414 95.2466 116.726 80.0588 116.726H77.4398C60.8058 116.726 47.3208 103.242 47.3208 86.6075V82.4778C66.4483 80.5121 81.3685 64.3493 81.3685 44.7023V13.2737C81.3685 12.2317 80.9547 11.2325 80.2175 10.4957C79.4808 9.75899 78.482 9.34505 77.4398 9.34505H66.9634C66.9087 9.34505 66.854 9.34624 66.7993 9.34846C66.2192 7.08749 64.1674 5.4165 61.7255 5.4165H59.1066Z" fill="#7546B8" fill-opacity="0.1"/>
</svg>
