<svg width="41" height="30" viewBox="0 0 41 30" fill="none" xmlns="http://www.w3.org/2000/svg">
<g clip-path="url(#clip0_102_26)">
<path d="M10.1118 11.9167C18.4773 15.2917 20.3047 17.75 20.3047 21.6667C20.3047 26.5834 16.4062 30 9.98991 30C6.61936 30 3.89851 28.25 2.03047 28.25C0.97463 28.25 0.487313 29.0417 0.203047 29.75H0V20.4583H0.203047C1.2995 25.125 4.18279 29.7917 9.98991 29.7917C14.4164 29.7917 17.259 27.625 17.259 23.5417C17.259 19.4584 13.2793 18.25 8.40617 16.0417C2.9645 13.625 0.527926 11.6666 0.527926 7.45834C0.527926 3.16667 4.42644 0 9.3808 0C12.9138 0 14.1728 1.70833 15.7565 1.70833C16.8123 1.70833 17.056 1.29167 17.3808 0.583333H17.584V7.91666H17.4215C16.2844 3.25 13.726 0.208333 9.3808 0.208333C5.19801 0.208333 3.24876 2.66666 3.24876 5.25C3.24876 7.54167 4.30461 9.62497 10.1118 11.9167Z" fill="#1E1E1E"/>
<path d="M20.6953 0.4H41V7.74171H40.8407C40.4426 3.48686 38.4121 0.608571 33.7938 0.608571H28.1403V14.8749H30.4893C34.6299 14.8749 36.0234 12.6223 36.2224 8.95147H36.3817V21.0069H36.2224C36.0234 17.336 34.6299 15.0835 30.4893 15.0835H28.1403V29.3914H31.7235V29.6H20.6953V29.3914H24.3182V0.608571H20.6953V0.4Z" fill="#1E1E1E"/>
</g>
<defs>
<clipPath id="clip0_102_26">
<rect width="41" height="30" fill="white"/>
</clipPath>
</defs>
</svg>
