<svg width="30" height="30" viewBox="0 0 30 30" fill="none" xmlns="http://www.w3.org/2000/svg">
<path fill-rule="evenodd" clip-rule="evenodd" d="M14.9999 0C6.71991 0 -9.15527e-05 6.72 -9.15527e-05 15C-9.15527e-05 23.28 6.71991 30 14.9999 30C23.2799 30 29.9999 23.28 29.9999 15C29.9999 6.72 23.2799 0 14.9999 0ZM20.2649 20.985C20.7599 18.33 21.7349 12.57 21.9599 10.2C21.9749 9.99 21.9449 9.72 21.9599 9.63C21.9449 9.51 21.8999 9.345 21.7499 9.225C21.5699 9.075 21.2849 9.045 21.1649 9.045C20.5949 9.045 19.7399 9.345 15.5699 11.085C14.1149 11.685 11.2049 12.945 6.82491 14.85C6.11991 15.135 5.74491 15.405 5.71491 15.675C5.65491 16.2 6.38991 16.365 7.33491 16.665C8.09991 16.92 9.11991 17.205 9.65991 17.22C10.1399 17.235 10.6799 17.025 11.2799 16.62C15.3749 13.86 17.4749 12.465 17.6099 12.435C17.7149 12.42 17.8349 12.39 17.9249 12.465C17.9584 12.5005 17.9828 12.5437 17.9959 12.5907C18.0089 12.6378 18.0103 12.6873 17.9999 12.735C17.9249 13.05 14.0849 16.545 13.8599 16.77C13.0049 17.64 12.0449 18.18 13.5299 19.155C14.8049 19.995 15.5549 20.535 16.8749 21.405C17.7149 21.96 18.3749 22.605 19.2449 22.53C19.6349 22.485 20.0549 22.11 20.2649 20.985Z" fill="white"/>
<path d="M21.9599 10.2C21.7349 12.57 20.7599 18.33 20.2649 20.985C20.0549 22.11 19.6349 22.485 19.2449 22.53C18.3749 22.605 17.7149 21.96 16.8749 21.405C15.5549 20.535 14.8049 19.995 13.5299 19.155C12.0449 18.18 13.0049 17.64 13.8599 16.77C14.0849 16.545 17.9249 13.05 17.9999 12.735C18.0103 12.6873 18.0089 12.6378 17.9959 12.5907C17.9828 12.5437 17.9584 12.5005 17.9249 12.465C17.8349 12.39 17.7149 12.42 17.6099 12.435C17.4749 12.465 15.3749 13.86 11.2799 16.62C10.6799 17.025 10.1399 17.235 9.65991 17.22C9.11991 17.205 8.09991 16.92 7.33491 16.665C6.38991 16.365 5.65491 16.2 5.71491 15.675C5.74491 15.405 6.11991 15.135 6.82491 14.85C11.2049 12.945 14.1149 11.685 15.5699 11.085C19.7399 9.345 20.5949 9.045 21.1649 9.045C21.2849 9.045 21.5699 9.075 21.7499 9.225C21.8999 9.345 21.9449 9.51 21.9599 9.63C21.9449 9.72 21.9749 9.99 21.9599 10.2Z" fill="#B41A24"/>
</svg>
